<svg width="24" height="45" viewBox="0 0 24 45" fill="none" xmlns="http://www.w3.org/2000/svg">
<mask id="path-1-inside-1" fill="white">
<path fill-rule="evenodd" clip-rule="evenodd" d="M10.7115 2C10.6605 2.1058 10.6183 2.22065 10.5864 2.34457L10.56 2.44681L10.1252 6.30135C9.80788 9.11456 7.81274 11.4526 5.08446 12.2084C2.08 13.0408 0 15.7754 0 18.893V36C0 40.9706 4.02944 45 9 45H15C19.9706 45 24 40.9706 24 36V18.5449C24 15.6157 22.0898 13.029 19.2902 12.1673C16.8805 11.4255 15.0946 9.38885 14.674 6.90286L13.92 2.44681C13.8884 2.2836 13.8387 2.13463 13.774 2H10.7115Z"/>
</mask>
<path d="M10.5864 2.34457L11.5547 2.59424L11.5547 2.59424L10.5864 2.34457ZM10.7115 2V1H10.0832L9.81052 1.56607L10.7115 2ZM10.56 2.44681L9.59167 2.19714L9.57416 2.26504L9.5663 2.33472L10.56 2.44681ZM10.1252 6.30135L11.1189 6.41344L11.1189 6.41344L10.1252 6.30135ZM5.08446 12.2084L4.81748 11.2447L4.81748 11.2447L5.08446 12.2084ZM19.2902 12.1673L19.5844 11.2115L19.5844 11.2115L19.2902 12.1673ZM14.674 6.90286L15.66 6.73604L14.674 6.90286ZM13.92 2.44681L14.906 2.27998L14.904 2.26844L14.9018 2.25695L13.92 2.44681ZM13.774 2L14.6753 1.56687L14.4029 1H13.774V2ZM11.5547 2.59424C11.5707 2.53201 11.5907 2.47904 11.6124 2.43393L9.81052 1.56607C9.73032 1.73257 9.66589 1.90928 9.61803 2.09491L11.5547 2.59424ZM11.5283 2.69647L11.5547 2.59424L9.61803 2.09491L9.59167 2.19714L11.5283 2.69647ZM11.1189 6.41344L11.5537 2.5589L9.5663 2.33472L9.13151 6.18926L11.1189 6.41344ZM5.35144 13.1721C8.47305 12.3073 10.7558 9.63222 11.1189 6.41344L9.13151 6.18926C8.85993 8.59689 7.15242 10.5979 4.81748 11.2447L5.35144 13.1721ZM1 18.893C1 16.2248 2.78013 13.8845 5.35144 13.1721L4.81748 11.2447C1.37987 12.1971 -1 15.3259 -1 18.893H1ZM1 36V18.893H-1V36H1ZM9 44C4.58172 44 1 40.4183 1 36H-1C-1 41.5228 3.47715 46 9 46V44ZM15 44H9V46H15V44ZM23 36C23 40.4183 19.4183 44 15 44V46C20.5228 46 25 41.5229 25 36H23ZM23 18.5449V36H25V18.5449H23ZM18.996 13.123C21.376 13.8556 23 16.0547 23 18.5449H25C25 15.1768 22.8035 12.2024 19.5844 11.2115L18.996 13.123ZM13.688 7.06969C14.1716 9.92823 16.2252 12.2701 18.996 13.123L19.5844 11.2115C17.5358 10.5809 16.0175 8.84947 15.66 6.73604L13.688 7.06969ZM12.934 2.61364L13.688 7.06969L15.66 6.73604L14.906 2.27998L12.934 2.61364ZM12.8727 2.43313C12.899 2.488 12.9224 2.55495 12.9382 2.63666L14.9018 2.25695C14.8545 2.01225 14.7784 1.78126 14.6753 1.56687L12.8727 2.43313ZM13.774 1H10.7115V3H13.774V1Z" fill="black" mask="url(#path-1-inside-1)"/>
<path d="M10.5 0.5V3H14V2.5V0.5H10.5Z" stroke="black"/>
<path d="M0.5 19.5L4.87904 18.6242C5.2885 18.5423 5.71055 18.5468 6.11818 18.6374L9.49273 19.3873C9.82841 19.4619 10.1744 19.4782 10.5156 19.4355L13.4439 19.0695C13.8115 19.0236 14.1843 19.0461 14.5437 19.1359L17.2207 19.8052C17.7312 19.9328 18.2664 19.9239 18.7724 19.7793L20.3779 19.3206C21.0996 19.1144 21.8724 19.1862 22.5438 19.5219L23.5 20" stroke="black"/>
<path d="M0.5 17.3333L5.2152 16.1903C5.72926 16.0656 6.26712 16.0791 6.77427 16.2294L9.83682 17.1368C10.2732 17.2661 10.7333 17.2944 11.1823 17.2196L13.765 16.7892C14.2477 16.7087 14.7427 16.7476 15.2069 16.9023L17.4841 17.6614C18.1411 17.8804 18.8536 17.8653 19.5007 17.6188L20.2992 17.3146C21.3444 16.9164 22.5243 17.1327 23.3603 17.8758L23.5 18" stroke="black"/>
<circle cx="5" cy="23" r="1.5" stroke="black"/>
<circle cx="18.5" cy="24.5" r="1" stroke="black"/>
<circle cx="8.5" cy="36.5" r="1" stroke="black"/>
<circle cx="17" cy="41" r="0.5" stroke="black"/>
<circle cx="11" cy="28" r="0.5" stroke="black"/>
</svg>
