<svg width="50" height="50" viewBox="0 0 50 50" fill="none" xmlns="http://www.w3.org/2000/svg">
<mask id="path-1-inside-1" fill="white">
<path fill-rule="evenodd" clip-rule="evenodd" d="M23.7205 2.61798C23.6629 2.73544 23.6163 2.86422 23.5828 3.00439L23.56 3.09992L23.0922 7.57283C22.7942 10.4231 20.8112 12.8145 18.0654 13.635C15.0596 14.5332 13 17.2982 13 20.4354V40C13 44.9706 17.0294 49 22 49H28C32.9706 49 37 44.9706 37 40V20.0844C37 17.1375 35.1125 14.522 32.3157 13.5934C29.8864 12.7867 28.1108 10.6911 27.7141 8.16221L26.92 3.09992C26.8882 2.92266 26.835 2.76197 26.7645 2.61798H23.7205Z"/>
</mask>
<path d="M23.5828 3.00439L24.5554 3.23687L24.5554 3.23686L23.5828 3.00439ZM23.7205 2.61798V1.61798H23.0971L22.8226 2.17773L23.7205 2.61798ZM23.56 3.09992L22.5874 2.86743L22.5722 2.93096L22.5654 2.99591L23.56 3.09992ZM23.0922 7.57283L24.0868 7.67684L24.0868 7.67684L23.0922 7.57283ZM18.0654 13.635L17.7791 12.6769L17.7791 12.6769L18.0654 13.635ZM32.3157 13.5934L32.0006 14.5424L32.0006 14.5424L32.3157 13.5934ZM27.7141 8.16221L28.702 8.00724L28.702 8.00724L27.7141 8.16221ZM26.92 3.09992L27.9079 2.94495L27.9062 2.93419L27.9043 2.92346L26.92 3.09992ZM26.7645 2.61798L27.6625 2.17802L27.3881 1.61798H26.7645V2.61798ZM24.5554 3.23686C24.5723 3.16623 24.5943 3.10734 24.6184 3.05823L22.8226 2.17773C22.7315 2.36355 22.6604 2.56222 22.6102 2.77191L24.5554 3.23686ZM24.5326 3.3324L24.5554 3.23687L22.6102 2.7719L22.5874 2.86743L24.5326 3.3324ZM24.0868 7.67684L24.5546 3.20393L22.5654 2.99591L22.0977 7.46882L24.0868 7.67684ZM18.3517 14.5931C21.4844 13.657 23.7468 10.9287 24.0868 7.67684L22.0977 7.46882C21.8416 9.91752 20.138 11.9719 17.7791 12.6769L18.3517 14.5931ZM14 20.4354C14 17.7402 15.7694 15.3648 18.3517 14.5931L17.7791 12.6769C14.3497 13.7017 12 16.8562 12 20.4354H14ZM14 40V20.4354H12V40H14ZM22 48C17.5817 48 14 44.4183 14 40H12C12 45.5228 16.4772 50 22 50V48ZM28 48H22V50H28V48ZM36 40C36 44.4183 32.4183 48 28 48V50C33.5228 50 38 45.5228 38 40H36ZM36 20.0844V40H38V20.0844H36ZM32.0006 14.5424C34.3884 15.3353 36 17.5684 36 20.0844H38C38 16.7067 35.8365 13.7087 32.6308 12.6443L32.0006 14.5424ZM26.7262 8.31717C27.1808 11.2158 29.216 13.6179 32.0006 14.5424L32.6308 12.6443C30.5567 11.9556 29.0407 10.1664 28.702 8.00724L26.7262 8.31717ZM25.9321 3.25489L26.7262 8.31717L28.702 8.00724L27.9079 2.94495L25.9321 3.25489ZM25.8665 3.05795C25.8947 3.11565 25.9197 3.18731 25.9357 3.27638L27.9043 2.92346C27.8567 2.65801 27.7753 2.4083 27.6625 2.17802L25.8665 3.05795ZM26.7645 1.61798H23.7205V3.61798H26.7645V1.61798Z" fill="white" mask="url(#path-1-inside-1)"/>
<path d="M23.5 1V3.69663H27V3.1573V1H23.5Z" stroke="white"/>
<path d="M13.5 21.4944L17.8323 20.5598C18.2718 20.4649 18.727 20.4701 19.1642 20.5749L22.4551 21.3638C22.8153 21.4501 23.1883 21.469 23.5553 21.4195L26.4013 21.0358C26.7965 20.9825 27.1983 21.0085 27.5833 21.1123L30.1634 21.8081C30.71 21.9555 31.2871 21.9452 31.828 21.7785L33.2987 21.3252C34.0672 21.0884 34.8986 21.17 35.6064 21.5517L36.5 22.0337" stroke="white"/>
<path d="M13.5 19.1573L18.1574 17.9395C18.7078 17.7955 19.2877 17.8111 19.8296 17.9843L22.7898 18.9303C23.2562 19.0794 23.752 19.112 24.2339 19.0254L26.7097 18.5803C27.2275 18.4872 27.7606 18.5319 28.2556 18.7099L30.4131 19.4856C31.1127 19.7372 31.8807 19.72 32.5684 19.4374L33.1934 19.1806C34.2917 18.7293 35.5528 18.9682 36.4099 19.79L36.5 19.8764" stroke="white"/>
<path d="M19.5 25.2696C19.5 26.2213 18.7935 26.9269 18 26.9269C17.2065 26.9269 16.5 26.2213 16.5 25.2696C16.5 24.318 17.2065 23.6123 18 23.6123C18.7935 23.6123 19.5 24.318 19.5 25.2696Z" stroke="white"/>
<path d="M32.5 26.8876C32.5 27.5414 32.0173 28.0056 31.5 28.0056C30.9827 28.0056 30.5 27.5414 30.5 26.8876C30.5 26.2339 30.9827 25.7697 31.5 25.7697C32.0173 25.7697 32.5 26.2339 32.5 26.8876Z" stroke="white"/>
<path d="M22.5 39.8314C22.5 40.4852 22.0173 40.9494 21.5 40.9494C20.9827 40.9494 20.5 40.4852 20.5 39.8314C20.5 39.1777 20.9827 38.7135 21.5 38.7135C22.0173 38.7135 22.5 39.1777 22.5 39.8314Z" stroke="white"/>
<path d="M30.5 44.6854C30.5 45.0413 30.2412 45.2641 30 45.2641C29.7588 45.2641 29.5 45.0413 29.5 44.6854C29.5 44.3295 29.7588 44.1068 30 44.1068C30.2412 44.1068 30.5 44.3295 30.5 44.6854Z" stroke="white"/>
<path d="M24.5 30.6629C24.5 31.0188 24.2412 31.2416 24 31.2416C23.7588 31.2416 23.5 31.0188 23.5 30.6629C23.5 30.307 23.7588 30.0843 24 30.0843C24.2412 30.0843 24.5 30.307 24.5 30.6629Z" stroke="white"/>
</svg>
