<svg width="29" height="48" viewBox="0 0 29 48" fill="none" xmlns="http://www.w3.org/2000/svg">
<path fill-rule="evenodd" clip-rule="evenodd" d="M2 13.0857V38C2 42.9706 6.02944 47 11 47H18C22.9706 47 27 42.9706 27 38V13.0857H28V38C28 43.5229 23.5228 48 18 48H11C5.47715 48 1 43.5229 1 38V13.0857H2Z" fill="white"/>
<path d="M1.32927 13.4214C1.32927 5.7 12.8537 8.38571 13.1829 4.02143V1H12.1951V1.67143H17.1341V1H16.1463V4.02143C16.1463 8.38571 27.6707 6.03571 27.6707 13.4214" stroke="white"/>
<path d="M7.7439 26.6199C7.7439 27.1895 7.3344 27.5684 6.92683 27.5684C6.51926 27.5684 6.10976 27.1895 6.10976 26.6199C6.10976 26.0503 6.51926 25.6714 6.92683 25.6714C7.3344 25.6714 7.7439 26.0503 7.7439 26.6199Z" stroke="white"/>
<path d="M22.8902 36.6913C22.8902 37.261 22.4807 37.6398 22.0732 37.6398C21.6656 37.6398 21.2561 37.261 21.2561 36.6913C21.2561 36.1217 21.6656 35.7429 22.0732 35.7429C22.4807 35.7429 22.8902 36.1217 22.8902 36.6913Z" stroke="white"/>
<path d="M23.5488 23.2628C23.5488 23.8324 23.1393 24.2113 22.7317 24.2113C22.3241 24.2113 21.9146 23.8324 21.9146 23.2628C21.9146 22.6931 22.3241 22.3143 22.7317 22.3143C23.1393 22.3143 23.5488 22.6931 23.5488 23.2628Z" stroke="white"/>
<path d="M17.2134 19.8C17.2134 20.0373 17.026 20.2214 16.8049 20.2214C16.5838 20.2214 16.3963 20.0373 16.3963 19.8C16.3963 19.5627 16.5838 19.3786 16.8049 19.3786C17.026 19.3786 17.2134 19.5627 17.2134 19.8Z" stroke="white" stroke-width="0.5"/>
<path d="M9.31098 35.2429C9.31098 35.4802 9.12353 35.6643 8.90245 35.6643C8.68137 35.6643 8.49391 35.4802 8.49391 35.2429C8.49391 35.0055 8.68137 34.8214 8.90245 34.8214C9.12353 34.8214 9.31098 35.0055 9.31098 35.2429Z" stroke="white" stroke-width="0.5"/>
<path d="M7.33537 19.4643C7.33537 19.887 7.00049 20.2214 6.59756 20.2214C6.19463 20.2214 5.85976 19.887 5.85976 19.4643C5.85976 19.0415 6.19463 18.7072 6.59756 18.7072C7.00049 18.7072 7.33537 19.0415 7.33537 19.4643Z" stroke="white" stroke-width="0.5"/>
<path d="M16.5549 29.5357C16.5549 29.9585 16.22 30.2929 15.8171 30.2929C15.4141 30.2929 15.0793 29.9585 15.0793 29.5357C15.0793 29.113 15.4141 28.7786 15.8171 28.7786C16.22 28.7786 16.5549 29.113 16.5549 29.5357Z" stroke="white" stroke-width="0.5"/>
<path d="M1.32927 13.3095L6.9882 12.4827C7.2985 12.4374 7.61399 12.441 7.92318 12.4934L12.3481 13.2432C12.6076 13.2872 12.8719 13.2969 13.134 13.2719L17.0087 12.9025C17.2913 12.8756 17.5764 12.8889 17.8552 12.9421L21.5286 13.6424C21.9257 13.7181 22.3341 13.7128 22.7291 13.6267L25.4632 13.031C25.9717 12.9202 26.5004 12.9436 26.9971 13.0989L27.6707 13.3095" stroke="white"/>
</svg>
