<svg width="50" height="50" viewBox="0 0 50 50" fill="none" xmlns="http://www.w3.org/2000/svg">
    <rect x="4.5" y="4.5" width="41" height="41" rx="1.5" stroke="black"/>
    <rect x="6.5" y="35.5" width="7" height="8" rx="0.5" stroke="black"/>
    <rect x="16.5" y="35.5" width="7" height="8" rx="0.5" stroke="black"/>
    <rect x="26.5" y="35.5" width="7" height="8" rx="0.5" stroke="black"/>
    <rect x="6.5" y="6.5" width="37" height="7" rx="0.5" stroke="black"/>
    <rect x="6.5" y="15.5" width="7" height="8" rx="0.5" stroke="black"/>
    <rect x="16.5" y="15.5" width="7" height="8" rx="0.5" stroke="black"/>
    <rect x="26.5" y="15.5" width="7" height="8" rx="0.5" stroke="black"/>
    <rect x="26.5" y="15.5" width="7" height="8" rx="0.5" stroke="black"/>
    <rect x="6.5" y="25.5" width="7" height="8" rx="0.5" stroke="black"/>
    <rect x="16.5" y="25.5" width="7" height="8" rx="0.5" stroke="black"/>
    <rect x="26.5" y="25.5" width="7" height="8" rx="0.5" stroke="black"/>
    <rect x="35.5" y="25.5" width="7" height="18" rx="0.5" stroke="black"/>
    <rect x="35.5" y="15.5" width="7" height="8" rx="0.5" stroke="black"/>
    <rect x="35.5" y="15.5" width="7" height="8" rx="0.5" stroke="black"/>
</svg>
