<svg width="17" height="47" viewBox="0 0 17 47" fill="none" xmlns="http://www.w3.org/2000/svg">
<path fill-rule="evenodd" clip-rule="evenodd" d="M2.72838 3.9817C2.68772 4.25969 2.66666 4.54405 2.66666 4.83332V41.1667C2.66666 44.3883 5.27834 47 8.5 47C11.7217 47 14.3333 44.3883 14.3333 41.1667V4.83333C14.3333 4.54405 14.3123 4.2597 14.2716 3.98171C14.1828 3.99376 14.0921 3.99999 14 3.99999H13.2618C13.3088 4.27071 13.3333 4.54915 13.3333 4.83333V41.1667C13.3333 43.836 11.1694 46 8.5 46C5.83062 46 3.66666 43.836 3.66666 41.1667V4.83332C3.66666 4.54915 3.69119 4.27071 3.73824 3.99999H3C2.90787 3.99999 2.8172 3.99376 2.72838 3.9817Z" fill="black"/>
<path d="M3.5 14H5.46307C5.69798 14 5.93104 14.0414 6.15158 14.1222L7.53882 14.6309C8.16758 14.8614 8.87001 14.762 9.41006 14.366L10.4081 13.634C10.9482 13.238 11.6506 13.1386 12.2794 13.3691L14 14" stroke="black"/>
<circle cx="7" cy="20" r="1.5" stroke="black"/>
<circle cx="10.5" cy="28.5" r="1" stroke="black"/>
<circle cx="7" cy="39" r="0.5" stroke="black"/>
<rect x="0.5" y="0.5" width="16" height="4" rx="2" stroke="black"/>
</svg>
