<svg width="50" height="50" viewBox="0 0 50 50" fill="none" xmlns="http://www.w3.org/2000/svg">
<path fill-rule="evenodd" clip-rule="evenodd" d="M19.7141 5.06482C19.6828 5.30948 19.6667 5.55889 19.6667 5.81206V43.1667C19.6667 46.3883 22.2783 49 25.5 49C28.7217 49 31.3333 46.3883 31.3333 43.1667V5.81205C31.3333 5.55888 31.3172 5.30948 31.2859 5.06482C31.1925 5.07819 31.0971 5.0851 31 5.0851H30.279C30.3148 5.32221 30.3333 5.56497 30.3333 5.81205V43.1667C30.3333 45.836 28.1694 48 25.5 48C22.8306 48 20.6667 45.836 20.6667 43.1667V5.81206C20.6667 5.56497 20.6852 5.32221 20.721 5.0851H20C19.9029 5.0851 19.8075 5.07819 19.7141 5.06482Z" fill="black"/>
<path d="M20.5 15.2979H22.456C22.6955 15.2979 22.9331 15.3409 23.1574 15.4249L24.5209 15.9355C25.1593 16.1745 25.8755 16.072 26.4212 15.6633L27.397 14.9324C27.9427 14.5238 28.6589 14.4212 29.2973 14.6603L31 15.2979" stroke="black"/>
<path d="M25.5 21.4255C25.5 22.2874 24.8186 22.9681 24 22.9681C23.1814 22.9681 22.5 22.2874 22.5 21.4255C22.5 20.5636 23.1814 19.883 24 19.883C24.8186 19.883 25.5 20.5636 25.5 21.4255Z" stroke="black"/>
<path d="M28.5 30.1064C28.5 30.6863 28.0424 31.1383 27.5 31.1383C26.9576 31.1383 26.5 30.6863 26.5 30.1064C26.5 29.5265 26.9576 29.0745 27.5 29.0745C28.0424 29.0745 28.5 29.5265 28.5 30.1064Z" stroke="black"/>
<path d="M24.5 40.8298C24.5 41.1276 24.2663 41.3511 24 41.3511C23.7337 41.3511 23.5 41.1276 23.5 40.8298C23.5 40.5319 23.7337 40.3085 24 40.3085C24.2663 40.3085 24.5 40.5319 24.5 40.8298Z" stroke="black"/>
<rect x="17.5" y="1.5" width="16" height="4.10638" rx="2.05319" stroke="black"/>
</svg>
