<svg width="14" height="43" viewBox="0 0 14 43" fill="none" xmlns="http://www.w3.org/2000/svg">
<path fill-rule="evenodd" clip-rule="evenodd" d="M4.5 2.02858L4.00862 11.1261C4.00291 11.2319 3.98045 11.336 3.94208 11.4347L2.78457 14.4111C1.09312 15.6889 0 17.7168 0 20V32.7778V34.3333V41C0 42.1046 0.89543 43 2 43H12C13.1046 43 14 42.1046 14 41V34.3333V32.7778V20C14 17.7378 12.9269 15.7263 11.262 14.4466L10.1104 11.4294C10.0741 11.3342 10.0525 11.2339 10.0464 11.1322L9.50033 1.9407C9.50023 1.9389 9.50012 1.9371 9.5 1.9353V2V2.5H8.5318L9.04819 11.1915C9.06029 11.395 9.10344 11.5955 9.17615 11.786L10.3278 14.8032L10.4286 15.0673L10.6526 15.2395C12.0819 16.338 13 18.0616 13 20V32.7778V34.3333V41C13 41.5523 12.5523 42 12 42H2C1.44772 42 1 41.5523 1 41V34.3333V32.7778V20C1 18.0436 1.93529 16.306 3.38734 15.209L3.61373 15.038L3.71657 14.7736L4.87408 11.7971C4.95083 11.5998 4.99574 11.3915 5.00716 11.1801L5.476 2.5H4.5V2.02858Z" fill="white"/>
<path d="M8.5 0.5H5.5C4.94772 0.5 4.5 0.947715 4.5 1.5C4.5 2.05228 4.94772 2.5 5.5 2.5H8.5C9.05228 2.5 9.5 2.05228 9.5 1.5C9.5 0.947715 9.05228 0.5 8.5 0.5Z" stroke="#FEFEFE"/>
<path d="M5 8L6.18377 7.60541C6.38904 7.53699 6.61096 7.53699 6.81623 7.60541L7.60704 7.86901C7.85865 7.95288 8.13327 7.93337 8.37048 7.81476L9 7.5" stroke="#FEFEFE"/>
<circle cx="4" cy="38" r="0.5" stroke="#FEFEFE"/>
<circle cx="9" cy="34" r="0.5" stroke="#FEFEFE"/>
<circle cx="10" cy="23" r="0.5" stroke="#FEFEFE"/>
<circle cx="4.5" cy="28.5" r="1" stroke="#FEFEFE"/>
<circle cx="5.5" cy="18.5" r="1" stroke="#FEFEFE"/>
</svg>
