<svg width="50" height="50" viewBox="0 0 50 50" fill="none" xmlns="http://www.w3.org/2000/svg">
    <path fill-rule="evenodd" clip-rule="evenodd"
          d="M22.1429 2.72643L21.5802 13.0202C21.5744 13.1271 21.5515 13.2323 21.5123 13.3319L20.4233 16.0992C18.3734 17.3201 17 19.5585 17 22.1177V37.1961V40.1177V47C17 48.1046 17.8954 49 19 49H31C32.1046 49 33 48.1046 33 47V40.1177V37.1961V22.1177C33 19.5814 31.6512 17.3603 29.6317 16.1323L28.5481 13.3266C28.511 13.2305 28.4889 13.1292 28.4827 13.0263L27.8571 2.62079V2.69414V3.25885H26.8937L27.4845 13.0863C27.4969 13.2921 27.541 13.4946 27.6152 13.6869L28.6989 16.4926L28.8215 16.81L29.1122 16.9867C30.8457 18.0409 32 19.9449 32 22.1177V37.1961V40.1177V47C32 47.5523 31.5523 48 31 48H19C18.4477 48 18 47.5523 18 47V40.1177V37.1961V22.1177C18 19.9253 19.1753 18.0064 20.935 16.9584L21.2287 16.7834L21.3538 16.4654L22.4428 13.698C22.5212 13.4989 22.5671 13.2885 22.5788 13.0748L23.1153 3.25885H22.1429V2.72643Z"
          fill="white"/>
    <path d="M22.1429 2V2.25882C22.1429 2.81111 22.5906 3.25882 23.1429 3.25882H26.8571C27.4094 3.25882 27.8571 2.81111 27.8571 2.25882V2C27.8571 1.44772 27.4094 1 26.8571 1H23.1429C22.5906 1 22.1429 1.44771 22.1429 2Z"
          stroke="#FEFEFE"/>
    <path d="M22.7143 9.47059L24.1157 9.00895C24.3189 8.94201 24.5382 8.94201 24.7414 9.00895L25.754 9.3425C26.0032 9.42459 26.2747 9.40546 26.5099 9.28923L27.2857 8.90588"
          stroke="#FEFEFE"/>
    <path d="M22.2143 43.353C22.2143 43.695 21.9321 43.9824 21.5714 43.9824C21.2108 43.9824 20.9286 43.695 20.9286 43.353C20.9286 43.0109 21.2108 42.7235 21.5714 42.7235C21.9321 42.7235 22.2143 43.0109 22.2143 43.353Z"
          stroke="#FEFEFE"/>
    <path d="M27.9286 38.8353C27.9286 39.1773 27.6463 39.4647 27.2857 39.4647C26.9251 39.4647 26.6429 39.1773 26.6429 38.8353C26.6429 38.4932 26.9251 38.2059 27.2857 38.2059C27.6463 38.2059 27.9286 38.4932 27.9286 38.8353Z"
          stroke="#FEFEFE"/>
    <path d="M29.0714 26.4118C29.0714 26.7538 28.7892 27.0412 28.4286 27.0412C28.0679 27.0412 27.7857 26.7538 27.7857 26.4118C27.7857 26.0697 28.0679 25.7823 28.4286 25.7823C28.7892 25.7823 29.0714 26.0697 29.0714 26.4118Z"
          stroke="#FEFEFE"/>
    <path d="M23.3571 32.6235C23.3571 33.2775 22.8191 33.8176 22.1429 33.8176C21.4666 33.8176 20.9286 33.2775 20.9286 32.6235C20.9286 31.9696 21.4666 31.4294 22.1429 31.4294C22.8191 31.4294 23.3571 31.9696 23.3571 32.6235Z"
          stroke="#FEFEFE"/>
    <path d="M24.5 21.3294C24.5 21.9834 23.9619 22.5236 23.2857 22.5236C22.6095 22.5236 22.0714 21.9834 22.0714 21.3294C22.0714 20.6755 22.6095 20.1353 23.2857 20.1353C23.9619 20.1353 24.5 20.6755 24.5 21.3294Z"
          stroke="#FEFEFE"/>
</svg>
